<?xml version="1.0" standalone="no"?>
<!DOCTYPE svg PUBLIC "-//W3C//DTD SVG 20010904//EN"
 "http://www.w3.org/TR/2001/REC-SVG-20010904/DTD/svg10.dtd">
<svg version="1.0" xmlns="http://www.w3.org/2000/svg"
 width="512.000000pt" height="512.000000pt" viewBox="0 0 512.000000 512.000000"
 preserveAspectRatio="xMidYMid meet">
<metadata>
Created by potrace 1.11, written by Peter Selinger 2001-2013
</metadata>
<g transform="translate(0.000000,512.000000) scale(0.100000,-0.100000)"
fill="#000000" stroke="none">
<path d="M2335 4239 c-27 -5 -69 -11 -91 -13 -218 -27 -579 -187 -759 -338
-11 -9 -50 -42 -88 -73 -37 -31 -99 -93 -138 -138 -366 -421 -503 -939 -394
-1484 8 -39 20 -84 26 -100 6 -15 9 -28 8 -28 -4 0 22 -77 39 -118 9 -20 19
-36 23 -35 4 2 37 39 74 83 37 44 84 98 104 120 21 22 68 76 106 120 38 44 76
87 84 96 9 9 39 43 66 75 28 32 70 81 95 109 25 27 75 84 110 125 36 41 74 84
85 96 11 12 31 34 44 50 33 39 130 151 163 188 15 16 25 32 23 36 -2 4 -135 6
-296 6 -160 -1 -296 2 -302 6 -12 7 15 79 42 112 9 10 15 20 13 22 -4 6 63
118 108 179 33 44 155 172 221 231 64 57 244 160 354 204 11 4 32 12 46 18 31
12 127 36 224 55 131 26 380 14 529 -25 22 -5 46 -11 55 -13 67 -15 291 -118
299 -137 2 -5 8 -8 13 -8 6 0 45 -25 87 -56 88 -65 231 -206 282 -279 42 -61
110 -174 110 -185 0 -4 7 -13 15 -20 8 -7 15 -8 15 -3 0 6 11 22 25 37 14 15
69 77 122 139 53 62 101 115 106 118 13 10 -52 113 -135 214 -59 72 -211 219
-277 268 -31 23 -58 45 -61 48 -18 21 -325 188 -346 188 -2 0 -30 9 -62 21
-31 12 -64 23 -72 25 -8 2 -49 12 -90 23 -41 11 -95 23 -120 27 -25 3 -67 10
-95 14 -62 11 -323 10 -390 0z"/>
<path d="M4029 3169 c-30 -34 -58 -67 -64 -73 -5 -6 -39 -45 -74 -86 -36 -41
-70 -79 -76 -85 -6 -5 -42 -46 -79 -90 -78 -90 -85 -98 -123 -140 -16 -16 -53
-59 -83 -95 -30 -35 -64 -74 -75 -85 -18 -17 -89 -100 -150 -174 -11 -13 -30
-33 -41 -45 -12 -12 -52 -57 -90 -101 -38 -44 -74 -86 -81 -93 -7 -7 -13 -14
-13 -15 0 -2 151 -2 335 -2 323 0 335 -1 335 -19 0 -30 -105 -221 -166 -302
-218 -290 -539 -477 -892 -520 -69 -9 -247 -9 -322 0 -246 27 -477 128 -685
299 -125 103 -264 279 -326 412 -13 28 -25 52 -26 54 -4 5 -52 -45 -123 -129
-30 -36 -74 -85 -98 -110 -23 -25 -44 -52 -47 -61 -5 -14 21 -70 47 -104 5 -5
34 -46 67 -90 102 -139 303 -323 451 -414 160 -97 452 -212 575 -226 17 -2 50
-8 75 -13 52 -11 37 -11 260 -12 96 0 184 1 195 4 46 9 111 20 130 21 11 1 38
8 60 15 22 8 47 15 55 16 34 5 119 33 180 58 76 32 243 116 250 126 3 3 12 9
20 12 8 3 62 41 120 84 111 82 262 228 306 294 15 22 31 40 36 40 5 0 7 4 4 9
-4 5 -3 11 2 13 11 4 82 106 82 117 0 5 4 11 8 13 9 4 103 187 122 238 7 19
18 49 25 65 16 36 53 170 61 223 3 20 8 40 10 43 19 31 32 363 19 474 -4 28
-8 64 -10 80 -9 87 -55 259 -92 353 -15 37 -27 70 -25 75 6 22 -21 0 -69 -54z"/>
</g>
</svg>
